# xmcd
#
# Track frame offsets: 
#        150
#        12722
#        25098
#        37582
#        49627
#        63189
#        75705
#        88319
#        101728
#        114405
#        127897
#        139764
#        153963
#        168366
#        181240
#        194574
#        206732
#        221387
#        231081
#        245715
#        258290
#        270530
#
# Disc length: 3803 seconds
#
# Revision: 1
# Processed by: cddbd v1.5.2PL0 Copyright (c) Steve Scherf et al.
# Submitted via: ExactAudioCopyFreeDBPlugin 1.0
#
DISCID=2a0ed916
DTITLE=Various Artist - Roots of Rhythm 'n' Blues
DYEAR=2000
DGENRE=Rhythm and Blues
TTITLE0=Wynonie Harris with Instrumental Octet - Good Rockin' Tonight
TTITLE1=Louis Jordan and His Tympany Five - Choo Choo Ch' Boogie
TTITLE2=Helen Humes with The Bill Doggett Octet - Be-Baba-Leba
TTITLE3=Wild Bill Moore - We're Gonna Rock We're Gonna Roll
TTITLE4=The Ravens featuring Howard Biggs - Ol' Man River
TTITLE5=Joe Liggins - The Honeydripper
TTITLE6=Arthur "Big Boy" Crudup - So Glad You're Mine
TTITLE7=Cecil Gant - Hit That Jive, Jack
TTITLE8=Julia Lee and Her Boyfriends - Gotta Gimme What'Cha Got
TTITLE9=Roy Milton Band - R M Blues
TTITLE10=Sister Roseta Tharple with Lucky Millinder Orchestra - That's
TTITLE10=All
TTITLE11=Jimmy Witherspoon with the Jay McShann Band - Ain't Nobody's 
TTITLE11=Business If I Do (Part 1)
TTITLE12=Lionel Hampton and His Orchestra - Hey! Ba-Ba-Be-Bop
TTITLE13=Amos Milburn - Chicken Shack Boogie
TTITLE14=Nellie Lutcher and Her Rhythm - Fine Brown Frame
TTITLE15=Eddie "Cleanhead" Vinson with Cootie Williams and his Orchestra
TTITLE15=When My Baby Left Me
TTITLE16=Charles Brown and Johnny Moore's Three Blazers - Drifting Blues
TTITLE17=Camille Howard - X-Temporaneous Boogie
TTITLE18=Paul Williams Sextett - Thirty-Five, Thirty
TTITLE19=Slim Gaillard - Slim Gaillard's Boogie
TTITLE20=Dinah Washington with Tab Smith and His Orchestra - A Slick Chi
TTITLE20=ck
TTITLE21=Erskine Hawkins and His Orchestra featuring Avery Parrish piano
TTITLE21=After Hours
EXTD=
EXTT0=
EXTT1=
EXTT2=
EXTT3=
EXTT4=
EXTT5=
EXTT6=
EXTT7=
EXTT8=
EXTT9=
EXTT10=
EXTT11=
EXTT12=
EXTT13=
EXTT14=
EXTT15=
EXTT16=
EXTT17=
EXTT18=
EXTT19=
EXTT20=
EXTT21=
PLAYORDER=
